<svg version="1.1" xmlns="http://www.w3.org/2000/svg" viewBox="0 0 1681.81640625 642.462890625" width="1681.81640625" height="642.462890625">
  <!-- svg-source:excalidraw -->
  
  <defs>
    <style>
      @font-face {
        font-family: "Virgil";
        src: url("https://excalidraw.com/Virgil.woff2");
      }
      @font-face {
        font-family: "Cascadia";
        src: url("https://excalidraw.com/Cascadia.woff2");
      }
    </style>
  </defs>
  <rect x="0" y="0" width="1681.81640625" height="642.462890625" fill="#ffffff"></rect><g transform="translate(387.5129856620813 176.5886216304644) rotate(0 78.16651545385372 7.487214123932347)"><text x="0" y="10.974428247864685" font-family="Virgil, Segoe UI Emoji" font-size="11.979542598291761px" fill="#000000" text-anchor="start" style="white-space: pre;" direction="ltr">unstable_scheduleCallback</text></g><g stroke-linecap="round" transform="translate(361.7663280934089 169.49604608431457) rotate(0 100.99783902301982 14.46553166287866)"><path d="M-0.77 1.38 C46.6 -0.99, 89.82 -0.73, 202.45 1.71 M0.36 -0.11 C60.42 0.58, 120.39 1.48, 202.32 0.75 M200.6 -0.02 C201.51 9.8, 202.74 20.19, 200.82 30.08 M201.13 0.83 C201.46 6.65, 201.05 12.99, 201.07 29.24 M203.04 29.59 C150.6 27.78, 101.49 26.98, -0.04 30.36 M202.7 29.28 C134.34 29.84, 64.23 28.59, 0.31 29.35 M-1.09 29.07 C-0.9 19.11, 0.96 7.6, 1.28 0.44 M-0.42 29.12 C-0.36 19.81, -0.67 11.84, 0.85 -0.82" stroke="#000000" stroke-width="1" fill="none"></path></g><g transform="translate(645.7199264954356 176.66845182272323) rotate(0 59.897712991458775 7.487214123932347)"><text x="0" y="10.974428247864685" font-family="Virgil, Segoe UI Emoji" font-size="11.97954259829175px" fill="#000000" text-anchor="start" style="white-space: pre;" direction="ltr">requestHostCallback</text></g><g stroke-linecap="round" transform="translate(602.889719200238 169.40618837313986) rotate(0 104.06057755059089 14.100529974336965)"><path d="M-1.21 -0.35 C81.18 -0.26, 160.48 -2.7, 209.83 1.38 M-0.62 -0.81 C69.36 -2, 139.72 -0.4, 208.87 -0.35 M208.53 1.4 C209.67 8.1, 208.87 14.56, 209.49 27.86 M207.29 -0.59 C208.74 10.04, 207.58 18.37, 207.84 28.78 M207.8 26.71 C164.13 27.9, 119.36 28.3, 0.63 29.14 M208.93 28.13 C154.99 28.86, 101.91 29.07, -0.74 27.75 M-1.78 27.89 C1.63 17.46, -1.95 8.19, 1.96 -1.85 M-0.58 29.15 C1 20.16, -0.14 11.1, 0.6 0.32" stroke="#000000" stroke-width="1" fill="none"></path></g><g stroke-linecap="round"><g transform="translate(567.5471768941765 183.96279334199266) rotate(0 17.22984799735042 -0.2793135487933114)"><path d="M1.17 0.77 C7.01 0.72, 28.9 0.59, 34.13 0.43 M0.33 0.13 C6.14 -0.33, 27.75 -1.49, 33.52 -1.32" stroke="#000000" stroke-width="1" fill="none"></path></g><g transform="translate(567.5471768941765 183.96279334199266) rotate(0 17.22984799735042 -0.2793135487933114)"><path d="M18.97 5.58 C22.41 1.88, 25.12 1.95, 32.72 -2.04 M18.03 4.73 C24.2 1.99, 30.97 -0.54, 33.29 -1.89" stroke="#000000" stroke-width="1" fill="none"></path></g><g transform="translate(567.5471768941765 183.96279334199266) rotate(0 17.22984799735042 -0.2793135487933114)"><path d="M18.77 -5.87 C22.33 -6.97, 25.09 -4.28, 32.72 -2.04 M17.84 -6.72 C24.1 -4.95, 30.95 -2.96, 33.29 -1.89" stroke="#000000" stroke-width="1" fill="none"></path></g></g><g stroke-linecap="round"><g transform="translate(819.3672272107008 184.19730113516601) rotate(0 16.30025048197888 0.47879677204235804)"><path d="M-0.54 1.08 C5.09 1.38, 27.37 1.52, 33.14 1.49 M1.37 0.6 C6.92 0.55, 26.87 -0.74, 32.29 -0.5" stroke="#000000" stroke-width="1" fill="none"></path></g><g transform="translate(819.3672272107008 184.19730113516601) rotate(0 16.30025048197888 0.47879677204235804)"><path d="M18.36 5.62 C21.05 5.53, 24.02 1.23, 32.28 0.79 M16.67 5.77 C23.56 3.55, 28.39 1.39, 32.03 -0.91" stroke="#000000" stroke-width="1" fill="none"></path></g><g transform="translate(819.3672272107008 184.19730113516601) rotate(0 16.30025048197888 0.47879677204235804)"><path d="M18.19 -5.66 C20.88 -2.97, 23.9 -4.48, 32.28 0.79 M16.5 -5.51 C23.44 -3.38, 28.33 -1.18, 32.03 -0.91" stroke="#000000" stroke-width="1" fill="none"></path></g></g><g stroke-linecap="round" transform="translate(863.0563714804039 111.66589607645409) rotate(0 83.3467317258494 68.67764142897624)"><path d="M71.2 0.63 C82.24 -1.6, 96.52 -0.16, 108.25 2.95 C119.99 6.05, 132.74 12.37, 141.61 19.26 C150.48 26.15, 157.36 35.16, 161.47 44.29 C165.58 53.41, 167.45 64.16, 166.25 73.99 C165.04 83.83, 160.34 94.82, 154.23 103.29 C148.13 111.77, 139.51 119.26, 129.64 124.87 C119.76 130.48, 106.93 135.45, 94.99 136.96 C83.05 138.47, 69.32 136.87, 57.98 133.92 C46.64 130.97, 35.73 126.05, 26.94 119.27 C18.15 112.5, 9.59 102.66, 5.25 93.27 C0.91 83.88, -0.14 73.03, 0.92 62.95 C1.98 52.87, 5.55 41.25, 11.62 32.79 C17.69 24.32, 25.15 17.76, 37.34 12.16 C49.53 6.56, 75.05 0.76, 84.75 -0.79 C94.46 -2.35, 95.86 1.54, 95.57 2.8 M71.14 -0.64 C82.26 -2.89, 95.82 0.06, 107.26 3.02 C118.7 5.97, 131.03 10.34, 139.8 17.09 C148.57 23.84, 155.36 33.9, 159.87 43.51 C164.39 53.12, 167.65 64.74, 166.89 74.74 C166.14 84.74, 161.57 95.09, 155.33 103.53 C149.1 111.96, 139.54 119.88, 129.47 125.35 C119.41 130.81, 106.49 134.65, 94.95 136.32 C83.41 137.99, 71.51 138.35, 60.23 135.37 C48.95 132.38, 36.56 125.21, 27.28 118.4 C18 111.59, 8.98 103.55, 4.57 94.51 C0.15 85.47, -0.37 74.17, 0.8 64.14 C1.97 54.11, 5.85 43.13, 11.58 34.34 C17.31 25.55, 25.54 16.96, 35.18 11.38 C44.82 5.8, 63.47 2.3, 69.43 0.84 C75.4 -0.61, 70.56 1.38, 70.97 2.67" stroke="#000000" stroke-width="1" fill="none"></path></g><g transform="translate(898.295412705573 156.40667997577725) rotate(0 46.42072756838047 7.487214123932347)"><text x="0" y="10.974428247864685" font-family="Virgil, Segoe UI Emoji" font-size="11.979542598291742px" fill="#000000" text-anchor="start" style="white-space: pre;" direction="ltr">MessageChannel</text></g><g transform="translate(882.1778473012855 190.85053895091073) rotate(0 65.58799572564737 7.487214123932347)"><text x="0" y="10.974428247864685" font-family="Virgil, Segoe UI Emoji" font-size="11.979542598291758px" fill="#000000" text-anchor="start" style="white-space: pre;" direction="ltr">port.postMessage(null)</text></g><g stroke-linecap="round"><g transform="translate(1037.1474824283723 183.66014219634673) rotate(0 70.33959510125362 -0.08475694917703436)"><path d="M0.13 -0.45 C23.97 -0.2, 118.36 1.19, 141.95 1.57 M-1.27 -1.74 C22.56 -1.86, 117.53 -0.59, 141.22 -0.34" stroke="#000000" stroke-width="1" fill="none"></path></g><g transform="translate(1037.1474824283723 183.66014219634673) rotate(0 70.33959510125362 -0.08475694917703436)"><path d="M112.16 10.31 C119.42 7.68, 125.64 4.8, 141.51 -1.41 M112.06 9.35 C122.32 6.84, 131.95 3.83, 140.42 -0.74" stroke="#000000" stroke-width="1" fill="none"></path></g><g transform="translate(1037.1474824283723 183.66014219634673) rotate(0 70.33959510125362 -0.08475694917703436)"><path d="M112.4 -10.21 C119.62 -8.63, 125.79 -7.29, 141.51 -1.41 M112.31 -11.17 C122.63 -6.98, 132.18 -3.29, 140.42 -0.74" stroke="#000000" stroke-width="1" fill="none"></path></g></g><g transform="translate(1200.1284115854237 170.5865944748656) rotate(0 72.77572128462236 7.487214123932347)"><text x="0" y="10.974428247864685" font-family="Virgil, Segoe UI Emoji" font-size="11.979542598291749px" fill="#000000" text-anchor="start" style="white-space: pre;" direction="ltr">performWorkUntilDeadline</text></g><g transform="translate(1237.5878797492203 246.02696178609438) rotate(0 29.050390800857485 8.08619125384692)"><text x="0" y="11.172382507693868" font-family="Virgil, Segoe UI Emoji" font-size="12.484929551657231px" fill="#000000" text-anchor="start" style="white-space: pre;" direction="ltr">flushWork</text></g><g transform="translate(1327.4177367048821 245.6893686492565) rotate(0 83.25782105812766 8.685168383761521)"><text x="0" y="13.370336767523028" font-family="Virgil, Segoe UI Emoji" font-size="11.97954259829175px" fill="#000000" text-anchor="start" style="white-space: pre;" direction="ltr">也就是scheduledHostCallback</text></g><g stroke-linecap="round"><g transform="translate(1268.6312398515397 336.81159866404954) rotate(0 0.32924745456784876 22.69548294273477)"><path d="M0.97 -0.39 C0.89 7.04, -0.79 37.8, -0.76 45.4 M0.03 -1.64 C0.33 5.94, 1.28 39.01, 1.42 47.03" stroke="#000000" stroke-width="1" fill="none"></path></g><g transform="translate(1268.6312398515397 336.81159866404954) rotate(0 0.32924745456784876 22.69548294273477)"><path d="M-7.47 24.27 C-4.12 33.22, -2.21 39.35, -0.11 46.83 M-7.51 26.96 C-5.04 30.72, -2.64 34.36, 1.64 47.52" stroke="#000000" stroke-width="1" fill="none"></path></g><g transform="translate(1268.6312398515397 336.81159866404954) rotate(0 0.32924745456784876 22.69548294273477)"><path d="M7.99 23.9 C7.07 33.07, 4.71 39.31, -0.11 46.83 M7.95 26.59 C7.1 30.4, 6.18 34.11, 1.64 47.52" stroke="#000000" stroke-width="1" fill="none"></path></g></g><g stroke-linecap="round" transform="translate(1188.7906301977532 384.73696244959643) rotate(0 79.66395827864017 20.962528293857957)"><path d="M81.2 1.04 C99.55 6.77, 117.14 9.32, 160.88 22.57 M80.58 0.9 C101.44 5.91, 124.17 11.22, 158.36 21.45 M158.16 21.16 C141.15 27.36, 127.72 29.05, 80.57 43.7 M159.6 21.95 C133.41 27.91, 107.96 34.09, 79.69 41.92 M79.31 43.37 C56.37 34.06, 31.79 28.01, -0.13 21.6 M80.3 41.77 C58.75 37.53, 38.27 31.46, -0.54 21.02 M1.97 22.01 C19.32 15.13, 38.14 12.34, 81.89 -0.57 M-0.72 21.57 C26.5 12.26, 55.03 5.71, 80.01 0.52" stroke="#000000" stroke-width="1" fill="none"></path></g><g transform="translate(1193.7906301977532 398.19949074345436) rotate(0 74.66395827864017 7.5)"><text x="74.66395827864015" y="11" font-family="Virgil, Segoe UI Emoji" font-size="11.666243481037522px" fill="#000000" text-anchor="middle" style="white-space: pre;" direction="ltr">hasMoreWork</text></g><g stroke-linecap="round"><g transform="translate(1383.0758203716885 495.054328797457) rotate(0 -314.11513884183034 -170.14919907523947)"><path d="M-176.96 -97.49 C-218.74 -104.32, -383.06 -113.94, -427.38 -138.16 C-471.7 -162.38, -440.42 -225.32, -442.86 -242.81 M-178.27 -98.69 C-220.29 -105.85, -384.84 -115.98, -428.54 -139.82 C-472.23 -163.66, -438.22 -224.63, -440.43 -241.72" stroke="#000000" stroke-width="1" fill="none"></path></g><g transform="translate(1383.0758203716885 495.054328797457) rotate(0 -314.11513884183034 -170.14919907523947)"><path d="M-436.06 -212.77 C-435.78 -223.83, -439.66 -232.68, -441.62 -243.68 M-435 -212.95 C-438.15 -223.58, -439.07 -235.68, -439.58 -241.77" stroke="#000000" stroke-width="1" fill="none"></path></g><g transform="translate(1383.0758203716885 495.054328797457) rotate(0 -314.11513884183034 -170.14919907523947)"><path d="M-456.22 -216.57 C-448.95 -226.36, -445.85 -233.89, -441.62 -243.68 M-455.17 -216.74 C-450.39 -225.82, -443.41 -236.43, -439.58 -241.77" stroke="#000000" stroke-width="1" fill="none"></path></g></g><g transform="translate(981.1374259793206 334.6368039403117) rotate(0 12.878008293163589 7.487214123932347)"><text x="0" y="10.974428247864685" font-family="Virgil, Segoe UI Emoji" font-size="11.979542598291747px" fill="#000000" text-anchor="start" style="white-space: pre;" direction="ltr">true</text></g><g stroke-linecap="round"><g transform="translate(1268.5709075738646 441.73023964751707) rotate(0 1.1457500986045943 34.227584157672766)"><path d="M0.71 1.07 C0.79 12.17, 0.29 55.56, 0.28 66.76 M-0.38 0.59 C0.11 11.81, 2.66 56.92, 2.67 67.87" stroke="#000000" stroke-width="1" fill="none"></path></g><g transform="translate(1268.5709075738646 441.73023964751707) rotate(0 1.1457500986045943 34.227584157672766)"><path d="M-6.74 39.02 C-6.67 47.43, -0.98 55.69, 4.19 69.24 M-9.49 40.3 C-5.35 46.42, -3.09 53.61, 2.97 67.01" stroke="#000000" stroke-width="1" fill="none"></path></g><g transform="translate(1268.5709075738646 441.73023964751707) rotate(0 1.1457500986045943 34.227584157672766)"><path d="M13.77 38.34 C8.02 47.06, 7.89 55.51, 4.19 69.24 M11.02 39.62 C9.98 45.86, 7.07 53.23, 2.97 67.01" stroke="#000000" stroke-width="1" fill="none"></path></g></g><g transform="translate(1283.4236687141706 464.1087856771505) rotate(0 15.273916812821994 7.487214123932347)"><text x="0" y="10.974428247864685" font-family="Virgil, Segoe UI Emoji" font-size="11.979542598291747px" fill="#000000" text-anchor="start" style="white-space: pre;" direction="ltr">false</text></g><g stroke-linecap="round" transform="translate(1232.0827718643486 525.2191599561825) rotate(0 41.6492998175263 31.86411260868175)"><path d="M1.42 -1.52 C19.53 -0.7, 40.68 -1.13, 85.03 -1.47 M-0.29 -0.87 C29.15 -0.08, 58.03 0.79, 83.79 -0.51 M81.38 0.38 C83.47 20.74, 82.78 38.4, 84.11 64.31 M83.84 -0.36 C84.78 20.63, 83.28 41.46, 83.9 64.03 M81.85 61.74 C66.27 64.96, 49.99 66.07, 0.21 61.78 M83.87 64.11 C59.98 63.55, 36.22 62.89, 0.66 63.5 M1.11 63.11 C1.58 44.51, 0.96 26.47, -1.04 -0.64 M-0.17 64.26 C0.25 49.21, -0.14 37.1, -0.07 -1" stroke="#000000" stroke-width="1" fill="none"></path></g><g transform="translate(1237.0827718643486 547.0832725648643) rotate(0 36.6492998175263 10)"><text x="36.64929981752633" y="14" font-family="Virgil, Segoe UI Emoji" font-size="15.909773564197476px" fill="#000000" text-anchor="middle" style="white-space: pre;" direction="ltr">exit</text></g><g transform="translate(1239.9443466944779 309.11944230418516) rotate(0 27.267340097020565 8.112597053659016)"><text x="0" y="11.22519410731801" font-family="Virgil, Segoe UI Emoji" font-size="12.619595416802898px" fill="#000000" text-anchor="start" style="white-space: pre;" direction="ltr">workLoop</text></g><g stroke-linecap="round"><g transform="translate(1266.4174910859379 190.33516548843272) rotate(0 -0.18144102660050976 27.74298617067143)"><path d="M-1.15 -0.95 C-1.48 8.16, -1.38 45.73, -1.22 54.86 M0.45 1.16 C0.42 10.46, 1.2 47.52, 0.96 56.44" stroke="#000000" stroke-width="1" fill="none"></path></g><g transform="translate(1266.4174910859379 190.33516548843272) rotate(0 -0.18144102660050976 27.74298617067143)"><path d="M-10.01 29.03 C-4.84 40.12, -3.15 50.89, -0.79 55.4 M-9.39 30.54 C-5.93 36.39, -5.6 40.1, 0.21 55.49" stroke="#000000" stroke-width="1" fill="none"></path></g><g transform="translate(1266.4174910859379 190.33516548843272) rotate(0 -0.18144102660050976 27.74298617067143)"><path d="M8.73 29.02 C7.1 39.93, 1.98 50.7, -0.79 55.4 M9.35 30.53 C9.06 36.45, 5.64 40.17, 0.21 55.49" stroke="#000000" stroke-width="1" fill="none"></path></g></g><g stroke-linecap="round"><g transform="translate(1267.4461115731049 263.87472732196886) rotate(0 -0.00474679387548349 19.105105343084233)"><path d="M1.19 -0.9 C1.16 5.44, 0.06 31.46, -0.16 38.03 M0.35 1.25 C0.14 7.71, -0.98 32.71, -1.2 39.11" stroke="#000000" stroke-width="1" fill="none"></path></g><g transform="translate(1267.4461115731049 263.87472732196886) rotate(0 -0.00474679387548349 19.105105343084233)"><path d="M-8.57 20.3 C-6.76 25.91, -4.15 32.95, -1.04 40.58 M-7.55 20.76 C-4.21 27.58, -3.53 32.89, -2.06 39.1" stroke="#000000" stroke-width="1" fill="none"></path></g><g transform="translate(1267.4461115731049 263.87472732196886) rotate(0 -0.00474679387548349 19.105105343084233)"><path d="M4.73 20.83 C2.52 26.41, 1.12 33.29, -1.04 40.58 M5.75 21.3 C4.33 27.86, 0.26 32.98, -2.06 39.1" stroke="#000000" stroke-width="1" fill="none"></path></g></g><g transform="translate(585.5618322627902 207.8147612023364) rotate(0 122.91866387461505 9.038137049604046)"><text x="0" y="14.076274099208103" font-family="Virgil, Segoe UI Emoji" font-size="12.653391869445665px" fill="#000000" text-anchor="start" style="white-space: pre;" direction="ltr">把flushWork赋值给scheduledHostCallback</text></g><g stroke-linecap="round" transform="translate(1189.041318170654 164.579442142932) rotate(0 85.01831912914338 13.724330889672416)"><path d="M1.34 -0.95 C45.71 2.69, 89.02 2.19, 169.16 -0.74 M-0.57 -0.73 C62.41 -1.66, 122.75 -0.82, 169.19 -0.08 M168.66 1.57 C167.98 6.64, 171.19 17.52, 169.06 29.07 M169.16 -0.56 C169.48 7.23, 170.11 12.77, 170.33 26.72 M169.32 25.77 C105.11 28.24, 41.31 29.65, -1.5 27.49 M169.76 26.48 C134.22 28.2, 99.44 29.24, 0.12 28.2 M-0.95 27.37 C-0.11 18.64, -2.23 10.6, -0.02 -1.36 M-0.23 28.34 C0.39 16.56, -0.27 8.05, -0.04 0.1" stroke="#000000" stroke-width="1" fill="none"></path></g><g stroke-linecap="round" transform="translate(1200.873790491512 244.44194529610854) rotate(0 60.00801569953455 9.350661389152123)"><path d="M-0.27 1.07 C29.42 -1.69, 61.81 -0.91, 121.9 -1.15 M-0.08 0.78 C26.4 -0.01, 54.52 -0.27, 119.89 -0.69 M121.18 0.92 C118.92 8.59, 118.79 13.33, 120.77 17.07 M120.2 -0.6 C120.21 3.88, 120.62 9.14, 120.65 18.37 M118.42 19.76 C92.6 18.53, 66.37 17.67, 1.72 18.14 M120.57 19.03 C95.71 18.59, 71.48 18.7, 0.44 18.23 M-1.87 19.92 C-0.03 11.89, 1.14 8.93, 0.46 -0.43 M-0.07 19.12 C-0.14 11.51, -0.2 5.02, 0.62 -0.18" stroke="#000000" stroke-width="1" fill="none"></path></g><g stroke-linecap="round" transform="translate(1220.1266268101924 304.3028907182092) rotate(0 49.19835030810725 13.425176575345688)"><path d="M-0.6 0.14 C27.95 1.71, 55.61 -1.37, 98.55 0.34 M-0.13 -0.66 C35.6 -0.58, 71.01 -0.84, 98.86 -0.56 M98.32 1.76 C99.54 8.27, 97.51 18.21, 98.89 28.24 M98.5 -0.37 C97.94 8.14, 97.98 17.07, 99.14 26.96 M100.34 25.09 C76.68 25.98, 51.82 25.54, 1.62 27.11 M98.33 26.99 C77.45 26.96, 56.05 25.22, -0.91 25.88 M-1.86 25.77 C0.2 19.2, 1.76 11.71, -1.76 -0.41 M0.28 27.34 C-0.91 18.72, -0.99 11.71, 0.54 0.24" stroke="#000000" stroke-width="1" fill="none"></path></g><g transform="translate(1276.999371595332 348.38052136655546) rotate(0 137.76473988035514 8.685168383761521)"><text x="0" y="12.370336767523028" font-family="Virgil, Segoe UI Emoji" font-size="12.156235541535619px" fill="#000000" text-anchor="start" style="white-space: pre;" direction="ltr">如果有任务没执行完，则返回true，否则返回false</text></g><g transform="translate(1049.1908543557736 156.3150490628056) rotate(0 54.930665059085186 8.684690127918614)"><text x="0" y="12.369380255837218" font-family="Virgil, Segoe UI Emoji" font-size="12.158566179086048px" fill="#000000" text-anchor="start" style="white-space: pre;" direction="ltr">调度一个宏任务执行</text></g><g transform="translate(1324.3961110048676 308.6314363836073) rotate(0 23.600768520652537 8.354254343593794)"><text x="0" y="12.708508687187592" font-family="Virgil, Segoe UI Emoji" font-size="11.695956081031325px" fill="#000000" text-anchor="start" style="white-space: pre;" direction="ltr">执行任务</text></g><g transform="translate(45.760211143957804 170.37122565192595) rotate(0 124.88673158719155 11.979542598291744)"><text x="0" y="16.959085196583494" font-family="Virgil, Segoe UI Emoji" font-size="16.771359637608462px" fill="#000000" text-anchor="start" style="white-space: pre;" direction="ltr">React-reconciler包调用注册任务</text></g><g stroke-linecap="round"><g transform="translate(304.21433404888535 184.56659355594596) rotate(0 24.5740299175431 -0.1122565362905732)"><path d="M0.82 1.15 C8.94 1.29, 41.29 0.82, 49.36 0.55 M-0.21 0.72 C7.73 0.49, 40.51 -1.37, 48.65 -1.4" stroke="#000000" stroke-width="1" fill="none"></path></g><g transform="translate(304.21433404888535 184.56659355594596) rotate(0 24.5740299175431 -0.1122565362905732)"><path d="M27.89 8.5 C34.56 4.85, 40.97 0.65, 49.91 -1.23 M26.23 7 C35.35 4.67, 44.68 0.17, 49.56 -1.88" stroke="#000000" stroke-width="1" fill="none"></path></g><g transform="translate(304.21433404888535 184.56659355594596) rotate(0 24.5740299175431 -0.1122565362905732)"><path d="M27.33 -8.22 C34.16 -5.94, 40.77 -4.22, 49.91 -1.23 M25.67 -9.71 C34.99 -5.5, 44.54 -3.46, 49.56 -1.88" stroke="#000000" stroke-width="1" fill="none"></path></g></g><g stroke-linecap="round" transform="translate(10 59.06933593749994) rotate(0 830.908203125 286.69677734375)"><path d="M-0.79 0.86 C649.16 0.33, 1297.82 -0.98, 1660.51 -0.78 M-0.24 -0.32 C364.29 4.83, 729.69 5.32, 1661.2 0.01 M1660.5 1.41 C1663.47 156.84, 1663.4 312.26, 1662.01 572.93 M1661.77 -0.02 C1659.51 133.35, 1659.49 266.63, 1661.19 574.13 M1661.61 573.31 C1065.43 586.99, 469.35 586.33, -0.57 572.75 M1662.28 573.94 C1102.63 581.08, 543.52 580.43, 0.68 573.91 M1.12 574.52 C2.67 366.57, 1.14 160.23, 0.98 1.57 M0.79 573.09 C-0.33 373.45, 0.35 173.79, -0.51 0.33" stroke="#000000" stroke-width="1" fill="none"></path></g><g transform="translate(17.259765625 10) rotate(0 64 18)"><text x="0" y="25" font-family="Virgil, Segoe UI Emoji" font-size="28px" fill="#000000" text-anchor="start" style="white-space: pre;" direction="ltr">Scheduler</text></g></svg>